<svg id="Layer_1" enable-background="new 0 0 512 512" viewBox="0 0 512 512" xmlns="http://www.w3.org/2000/svg"><path d="m469.73 1h-427.46c-22.756 0-41.27 18.514-41.27 41.27v427.46c0 22.756 18.514 41.27 41.27 41.27h427.46c22.756 0 41.27-18.514 41.27-41.27v-427.46c0-22.756-18.514-41.27-41.27-41.27zm-427.46 16h427.46c13.934 0 25.27 11.336 25.27 25.27v44.022h-478v-44.022c0-13.934 11.336-25.27 25.27-25.27zm427.46 478h-427.46c-13.934 0-25.27-11.336-25.27-25.27v-367.438h478v367.438c0 13.934-11.336 25.27-25.27 25.27zm-414.479-423.329c11.042 0 20.024-8.983 20.024-20.024 0-11.042-8.983-20.025-20.024-20.025s-20.024 8.983-20.024 20.025c0 11.041 8.983 20.024 20.024 20.024zm0-24.049c2.219 0 4.024 1.806 4.024 4.025s-1.805 4.024-4.024 4.024-4.024-1.805-4.024-4.024 1.805-4.025 4.024-4.025zm44.06 24.049c11.042 0 20.024-8.983 20.024-20.024 0-11.042-8.983-20.025-20.024-20.025-11.042 0-20.025 8.983-20.025 20.025 0 11.041 8.983 20.024 20.025 20.024zm0-24.049c2.219 0 4.024 1.806 4.024 4.025s-1.805 4.024-4.024 4.024-4.025-1.805-4.025-4.024 1.806-4.025 4.025-4.025zm202.113 4.024c0-4.418 3.582-8 8-8h144.799c4.418 0 8 3.582 8 8s-3.582 8-8 8h-144.799c-4.419 0-8-3.581-8-8zm-158.054 20.025c11.042 0 20.025-8.983 20.025-20.024 0-11.042-8.983-20.025-20.025-20.025s-20.024 8.983-20.024 20.025c0 11.041 8.983 20.024 20.024 20.024zm0-24.049c2.219 0 4.025 1.806 4.025 4.025s-1.806 4.024-4.025 4.024-4.024-1.805-4.024-4.024 1.805-4.025 4.024-4.025zm328.032 70.267h-430.805c-4.418 0-8 3.582-8 8v345.513c0 4.418 3.582 8 8 8h430.805c4.418 0 8-3.582 8-8v-345.513c0-4.418-3.582-8-8-8zm-8 345.513h-414.805v-329.513h414.805zm-358.581-12.472h86.869c8.637 0 15.664-7.027 15.664-15.664v-86.869c0-8.637-7.027-15.664-15.664-15.664h-35.435v-47.866h52.552l41.536 41.536c1.5 1.5 3.535 2.343 5.657 2.343s4.157-.843 5.657-2.343l41.536-41.536h52.552v47.866h-35.435c-8.637 0-15.664 7.027-15.664 15.664v86.869c0 8.637 7.027 15.664 15.664 15.664h86.869c8.637 0 15.664-7.027 15.664-15.664v-86.869c0-8.637-7.027-15.664-15.664-15.664h-35.435v-55.866c0-4.418-3.582-8-8-8h-60.552l-39.192-39.193v-31.196h74.335c7.72 0 14-6.28 14-14v-21.683c0-7.72-6.28-14-14-14h-164.671c-7.719 0-14 6.28-14 14v21.683c0 7.719 6.28 14 14 14h74.336v31.196l-39.193 39.192h-60.552c-4.418 0-8 3.582-8 8v55.866h-35.435c-8.637 0-15.664 7.027-15.664 15.664v86.869c.001 8.637 7.028 15.665 15.665 15.665zm302.022-16h-86.197v-86.197h86.197zm-231.179-270.134h160.671v17.682h-160.671zm80.336 79.506 32.565 32.564-32.565 32.566-32.565-32.565zm-150.843 104.43h86.197v86.197h-86.197zm226.863 63.51 20.411-20.411-20.411-20.41c-3.124-3.125-3.124-8.189 0-11.314 3.124-3.123 8.189-3.123 11.313 0l20.411 20.411 20.411-20.411c3.124-3.123 8.189-3.123 11.313 0 3.124 3.125 3.124 8.189 0 11.314l-20.411 20.41 20.411 20.411c3.124 3.125 3.124 8.189 0 11.314-1.562 1.562-3.609 2.343-5.657 2.343s-4.095-.781-5.657-2.343l-20.411-20.411-20.411 20.411c-3.124 3.123-8.189 3.123-11.313 0-3.123-3.124-3.123-8.189.001-11.314zm-152.437-42.744c3.139 3.11 3.163 8.175.053 11.313l-32.99 33.3c-1.563 1.579-3.623 2.37-5.684 2.37-2.014 0-4.029-.756-5.583-2.271l-18.403-17.938c-3.164-3.084-3.229-8.148-.145-11.313s8.149-3.229 11.313-.145l12.721 12.399 27.405-27.662c3.108-3.139 8.174-3.161 11.313-.053z"/></svg>