<svg id="Layer_1" viewBox="0 0 512 512" xmlns="http://www.w3.org/2000/svg" data-name="Layer 1"><path d="m437.376 319.849v76.987c0 4.418-3.582 8-8 8h-76.986c-4.418 0-8-3.582-8-8s3.582-8 8-8h68.986v-68.987c0-4.418 3.582-8 8-8s8 3.582 8 8zm-277.766 68.987h-69.015v-68.987c0-4.418-3.582-8-8-8s-8 3.582-8 8v76.987c0 4.418 3.582 8 8 8h77.015c4.418 0 8-3.582 8-8s-3.582-8-8-8zm192.78-330.782h68.986v68.987c0 4.418 3.582 8 8 8s8-3.582 8-8v-76.987c0-4.418-3.582-8-8-8h-76.986c-4.418 0-8 3.582-8 8s3.582 8 8 8zm-269.794 76.988c4.418 0 8-3.582 8-8v-68.988h69.015c4.418 0 8-3.582 8-8s-3.582-8-8-8h-77.015c-4.418 0-8 3.582-8 8v76.987c0 4.418 3.582 8 8 8zm152.931 27.914c0 17.056-13.875 30.931-30.931 30.931s-30.961-13.875-30.961-30.931 13.889-30.96 30.961-30.96 30.931 13.889 30.931 30.96zm-16 0c0-8.249-6.698-14.96-14.931-14.96s-14.961 6.711-14.961 14.96 6.712 14.931 14.961 14.931 14.931-6.698 14.931-14.931zm-180.754 118.406c4.418 0 8-3.582 8-8v-5.527c0-4.418-3.582-8-8-8s-8 3.582-8 8v5.527c0 4.418 3.582 8 8 8zm8.857 63.84-.857.857v-49.199c0-4.418-3.582-8-8-8s-8 3.582-8 8v49.224l-.89-.888c-3.128-3.121-8.193-3.116-11.313.011-3.121 3.127-3.116 8.192.011 11.314l14.541 14.513c1.562 1.558 3.606 2.337 5.651 2.337s4.095-.781 5.656-2.343l14.514-14.513c3.125-3.124 3.125-8.189 0-11.314-3.124-3.124-8.189-3.124-11.313 0zm-8.857-179.673c-4.418 0-8 3.582-8 8v5.527c0 4.418 3.582 8 8 8s8-3.582 8-8v-5.527c0-4.418-3.582-8-8-8zm-14.541-61.497c2.045 0 4.09-.779 5.651-2.338l.89-.888v49.224c0 4.418 3.582 8 8 8s8-3.582 8-8v-49.198l.856.856c3.125 3.125 8.189 3.124 11.314 0 3.124-3.124 3.124-8.189 0-11.313l-14.514-14.513c-3.122-3.123-8.183-3.125-11.309-.005l-14.541 14.513c-3.127 3.121-3.132 8.187-.011 11.313 1.562 1.566 3.612 2.349 5.662 2.349zm440.996 163.803v5.527c0 4.418 3.582 8 8 8s8-3.582 8-8v-5.527c0-4.418-3.582-8-8-8s-8 3.582-8 8zm16.855 77.368-.855.855v-49.197c0-4.418-3.582-8-8-8s-8 3.582-8 8v49.224l-.89-.888c-3.127-3.121-8.192-3.116-11.313.011s-3.116 8.192.011 11.314l14.541 14.513c1.562 1.558 3.606 2.337 5.651 2.337s4.095-.781 5.657-2.343l14.513-14.513c3.124-3.124 3.124-8.189 0-11.313-3.125-3.124-8.189-3.124-11.314 0zm-8.855-179.674c-4.418 0-8 3.582-8 8v5.527c0 4.418 3.582 8 8 8s8-3.582 8-8v-5.527c0-4.418-3.582-8-8-8zm-14.541-61.497c2.045 0 4.09-.779 5.651-2.338l.89-.888v49.224c0 4.418 3.582 8 8 8s8-3.582 8-8v-49.197l.855.855c3.124 3.125 8.188 3.125 11.314 0 3.124-3.124 3.124-8.189 0-11.313l-14.513-14.513c-3.123-3.122-8.184-3.125-11.309-.005l-14.541 14.513c-3.127 3.121-3.132 8.187-.011 11.313 1.562 1.566 3.612 2.349 5.662 2.349zm-129.591 284.442v16.752c0 3.122-1.816 5.959-4.651 7.266l-10.195 4.698-2.679 6.464 3.882 10.559c1.076 2.927.354 6.212-1.852 8.417l-11.82 11.819c-2.206 2.206-5.491 2.927-8.418 1.852l-10.558-3.881-6.464 2.679-4.699 10.195c-1.307 2.835-4.144 4.651-7.266 4.651h-16.752c-3.117 0-5.95-1.81-7.26-4.638l-4.728-10.209-6.445-2.677-10.554 3.88c-2.926 1.073-6.205.354-8.411-1.845l-11.849-11.82c-2.214-2.208-2.938-5.504-1.854-8.438l3.901-10.553-2.673-6.453-10.219-4.699c-2.839-1.306-4.658-4.144-4.658-7.269v-16.752c0-3.119 1.812-5.954 4.645-7.262l10.232-4.728 2.672-6.434-3.341-9.037h-40.421c-21.073 0-38.217-17.157-38.217-38.245v-91.323h-55.205c-3.371 10.306-13.062 17.773-24.469 17.773-14.211 0-25.772-11.562-25.772-25.773s11.562-25.744 25.772-25.744c11.404 0 21.093 7.455 24.466 17.744h55.208v-91.323c0-21.073 17.144-38.216 38.217-38.216h198.646c21.089 0 38.245 17.144 38.245 38.216v91.323h55.181c3.377-10.29 13.077-17.744 24.492-17.744 14.211 0 25.772 11.549 25.772 25.744s-11.562 25.773-25.772 25.773c-11.419 0-21.121-7.467-24.495-17.773h-55.178v91.323c0 21.088-17.156 38.245-38.245 38.245h-40.418l-3.319 9.028 2.677 6.446 10.208 4.727c2.828 1.31 4.639 4.143 4.639 7.26zm134.359-165.029c0 5.389 4.384 9.773 9.772 9.773s9.772-4.384 9.772-9.773-4.384-9.744-9.772-9.744-9.772 4.371-9.772 9.744zm-414.938 0c0-5.373-4.372-9.744-9.745-9.744s-9.772 4.371-9.772 9.744 4.384 9.773 9.772 9.773 9.745-4.384 9.745-9.773zm329.037 99.323v-38.506l-62.164-52.817h-67.443l-23.987 28.792 99.735 84.777h31.613c12.266 0 22.245-9.979 22.245-22.245zm-165.785-72.895 15.354-18.429h-37.034zm49.509-34.429h35.281l-20.658-17.552zm116.276 16h-37.453l37.453 31.822zm-243.108-16h106.007l25.373-30.455c2.206-2.624 5.263-4.206 8.63-4.483 3.366-.276 6.633.783 9.206 2.984l37.608 31.954h56.284v-91.323c0-12.25-9.979-22.216-22.245-22.216h-198.646c-12.25 0-22.217 9.966-22.217 22.216zm0 16v44.533l36.648-43.991c.16-.19.334-.363.502-.542h-37.151zm22.217 113.568h47.765l5.792-5.792c2.205-2.206 5.489-2.928 8.418-1.852l10.562 3.884 6.438-2.659 4.725-10.224c1.308-2.832 4.143-4.645 7.262-4.645h16.752c3.124 0 5.963 1.819 7.269 4.657l4.695 10.211 6.456 2.66 8.219-3.022-109.831-93.358-46.737 56.101v21.793c0 12.266 9.967 22.245 22.217 22.245zm156.433 48.572-8.4-3.89c-1.82-.843-3.258-2.338-4.027-4.191l-5.073-12.217c-.771-1.858-.814-3.939-.12-5.828l3.197-8.699-4.596-4.606-8.685 3.193c-1.882.691-3.956.651-5.809-.112l-12.245-5.045c-1.868-.77-3.376-2.218-4.221-4.054l-3.867-8.41h-6.51l-3.892 8.423c-.845 1.828-2.348 3.27-4.209 4.039l-12.217 5.045c-1.854.767-3.931.807-5.814.115l-8.691-3.196-4.607 4.608 3.211 8.686c.699 1.892.658 3.979-.115 5.842l-5.073 12.217c-.771 1.854-2.21 3.352-4.033 4.194l-8.423 3.892v6.51l8.409 3.867c1.832.842 3.277 2.345 4.049 4.207l5.073 12.246c.771 1.862.812 3.946.113 5.836l-3.209 8.679 4.6 4.588 8.697-3.198c1.891-.694 3.97-.651 5.829.121l12.217 5.074c1.853.77 3.349 2.207 4.191 4.026l3.89 8.401h6.519l3.866-8.388c.843-1.828 2.344-3.271 4.203-4.042l12.245-5.074c1.856-.77 3.934-.812 5.823-.118l8.691 3.195 4.587-4.587-3.195-8.692c-.693-1.887-.651-3.965.118-5.822l5.073-12.246c.771-1.86 2.214-3.361 4.042-4.204l8.388-3.865v-6.519zm-22.635 3.25c0 19.01-15.465 34.475-34.475 34.475s-34.447-15.465-34.447-34.475 15.453-34.475 34.447-34.475 34.475 15.465 34.475 34.475zm-16 0c0-10.187-8.288-18.475-18.475-18.475s-18.447 8.288-18.447 18.475 8.275 18.475 18.447 18.475 18.475-8.288 18.475-18.475z"/></svg>