<svg id="Layer_1" enable-background="new 0 0 512 512" viewBox="0 0 512 512" xmlns="http://www.w3.org/2000/svg"><path d="m206.54 206.41c-32.4 32.4-32.4 85.12 0 117.52 16.2 16.2 37.48 24.3 58.76 24.3s42.56-8.1 58.76-24.3c32.4-32.4 32.4-85.12 0-117.52s-85.12-32.4-117.52 0zm109.03 109.03c-13.86 13.86-32.06 20.79-50.27 20.79-18.2 0-36.42-6.93-50.27-20.79-27.72-27.72-27.72-72.83 0-100.55 13.86-13.86 32.06-20.79 50.27-20.79 18.2 0 36.41 6.93 50.27 20.79 27.73 27.72 27.73 72.83 0 100.55zm146.11-190.35c-19.48 0-35.32 15.84-35.32 35.32 0 4.97 1.04 9.7 2.9 14l-60.2 39.29c-.85-1.72-1.74-3.43-2.68-5.1l15.02-15.99c3.05-3.25 2.98-8.27-.18-11.43l-31.93-31.93c-3.16-3.15-8.18-3.23-11.43-.18l-15.98 15.02c-7.94-4.45-16.37-7.94-25.14-10.4l-.66-21.92c-.13-4.46-3.74-7.96-8.21-7.96h-45.15c-4.47 0-8.07 3.5-8.21 7.96l-.66 21.92c-8.78 2.47-17.22 5.96-25.16 10.42l-15.96-15.03c-3.25-3.06-8.28-2.99-11.44.17l-11.72 11.72-55.07-55.07c4.56-5.95 7.27-13.38 7.27-21.43 0-19.48-15.84-35.32-35.32-35.32s-35.31 15.83-35.31 35.31 15.84 35.32 35.32 35.32c7.09 0 13.7-2.11 19.24-5.72l55.4 55.4-11.72 11.72c-3.16 3.16-3.24 8.18-.17 11.43l15.03 15.96c-4.45 7.94-7.95 16.38-10.42 25.16l-21.91.66c-4.47.13-7.97 3.74-7.97 8.21v16.57h-38.82c-2.86-16.63-17.37-29.32-34.8-29.32-19.48 0-35.32 15.84-35.32 35.32s15.84 35.32 35.32 35.32c17.43 0 31.94-12.69 34.8-29.32h38.82v16.58c0 4.47 3.5 8.07 7.96 8.21l21.92.66c2.47 8.78 5.96 17.22 10.42 25.16l-15.03 15.96c-3.06 3.25-2.99 8.28.17 11.43l31.93 31.93c3.16 3.16 8.18 3.23 11.43.17l15.96-15.03c.93.52 1.87 1.03 2.81 1.52l-26.27 32.28c-6.06-4.88-13.75-7.82-22.12-7.82-19.48 0-35.32 15.84-35.32 35.32s15.84 35.32 35.32 35.32 35.32-15.84 35.32-35.32c0-6.72-1.89-13.01-5.16-18.36l29.52-36.27c3.61 1.42 7.3 2.68 11.05 3.74l.68 21.93c.14 4.46 3.74 7.96 8.2 7.96h.01 45.15c4.46 0 8.07-3.5 8.21-7.96l.68-21.93c8.76-2.46 17.18-5.95 25.12-10.4l15.98 15.02c3.25 3.06 8.28 2.98 11.43-.18l11.72-11.72 30.28 30.28c-3.4 5.43-5.38 11.84-5.38 18.7 0 19.48 15.84 35.32 35.32 35.32s35.32-15.84 35.32-35.32-15.84-35.32-35.32-35.32c-8.28 0-15.9 2.87-21.93 7.66l-29.81-29.81 11.72-11.72c3.16-3.16 3.23-8.18.17-11.43l-15.02-15.98c4.44-7.93 7.93-16.35 10.4-25.12l21.93-.68c4.46-.14 7.96-3.74 7.96-8.21v-45.15c0-4.46-3.5-8.07-7.96-8.21l-21.93-.68c-.84-2.99-1.81-5.93-2.88-8.83l61.94-40.42c6.45 6.94 15.65 11.29 25.85 11.29 19.48 0 35.32-15.84 35.32-35.32s-15.85-35.33-35.33-35.33zm-398.54-40.63c0-12.86 10.46-23.32 23.32-23.32s23.32 10.46 23.32 23.32-10.46 23.32-23.32 23.32-23.32-10.46-23.32-23.32zm-12.82 204.03c-12.86 0-23.32-10.46-23.32-23.32s10.46-23.32 23.32-23.32 23.32 10.46 23.32 23.32-10.46 23.32-23.32 23.32zm112.79 162.37c-12.86 0-23.32-10.46-23.32-23.32s10.46-23.32 23.32-23.32c5.5 0 10.56 1.92 14.55 5.12l-.7.86 5.67 4.62c2.39 3.66 3.79 8.03 3.79 12.72.01 12.86-10.45 23.32-23.31 23.32zm258.13-55.83c12.86 0 23.32 10.46 23.32 23.32s-10.46 23.32-23.32 23.32-23.32-10.46-23.32-23.32 10.46-23.32 23.32-23.32zm-26.58-148.77v37.81l-21.07.65c-3.7.11-6.79 2.6-7.71 6.18-2.44 9.57-6.23 18.72-11.26 27.2-1.89 3.18-1.45 7.12 1.08 9.82l14.43 15.36-26.73 26.73-15.36-14.43c-2.69-2.53-6.64-2.96-9.82-1.08-8.48 5.03-17.63 8.82-27.2 11.26-3.58.91-6.07 4.01-6.18 7.7l-.65 21.07h-37.81l-.65-21.07c-.12-3.7-2.6-6.79-6.18-7.7-9.58-2.44-18.74-6.23-27.22-11.27-3.18-1.89-7.13-1.46-9.82 1.08l-15.32 14.43-26.73-26.73 14.44-15.33c2.53-2.69 2.97-6.64 1.08-9.82-5.04-8.5-8.84-17.66-11.28-27.25-.91-3.58-4.01-6.07-7.71-6.18l-21.06-.63v-37.8l21.06-.63c3.7-.11 6.8-2.6 7.71-6.18 2.44-9.59 6.24-18.76 11.28-27.25 1.89-3.18 1.45-7.13-1.08-9.82l-14.44-15.33 26.73-26.73 15.33 14.44c2.69 2.54 6.64 2.97 9.82 1.08 8.5-5.05 17.66-8.84 27.25-11.28 3.58-.92 6.06-4.01 6.18-7.71l.63-21.06h37.8l.63 21.06c.11 3.7 2.59 6.8 6.18 7.71 9.58 2.44 18.74 6.23 27.22 11.26 3.18 1.89 7.12 1.45 9.82-1.08l15.36-14.43 26.73 26.73-14.44 15.36c-2.53 2.69-2.96 6.64-1.08 9.81 5.03 8.48 8.82 17.63 11.26 27.2.91 3.58 4.01 6.07 7.7 6.18zm67.02-62.53c-12.86 0-23.32-10.46-23.32-23.32s10.46-23.32 23.32-23.32 23.32 10.46 23.32 23.32-10.46 23.32-23.32 23.32zm-230.8 53.73c-10.69 0-19.38 8.69-19.38 19.38v30.04c0 3.31 2.69 6 6 6s6-2.69 6-6v-9.02h14.76v9.02c0 3.31 2.69 6 6 6s6-2.69 6-6v-30.04c0-10.69-8.7-19.38-19.38-19.38zm-7.39 28.4v-9.02c0-4.07 3.31-7.38 7.38-7.38s7.38 3.31 7.38 7.38v9.02zm60.08-28.4h-16.3c-3.31 0-6 2.69-6 6v43.42c0 3.31 2.69 6 6 6s6-2.69 6-6v-15.71h10.3c9.29 0 16.85-7.56 16.85-16.85s-7.56-16.86-16.85-16.86zm0 21.71h-10.3v-9.71h10.3c2.68 0 4.85 2.18 4.85 4.85s-2.17 4.86-4.85 4.86zm29.54-21.71c3.31 0 6 2.69 6 6v43.42c0 3.31-2.69 6-6 6s-6-2.69-6-6v-43.42c0-3.32 2.68-6 6-6z"/></svg>