<?xml version="1.0" encoding="iso-8859-1"?>
<!-- Generator: Adobe Illustrator 19.0.0, SVG Export Plug-In . SVG Version: 6.00 Build 0)  -->
<svg version="1.1" id="Capa_1" xmlns="http://www.w3.org/2000/svg" xmlns:xlink="http://www.w3.org/1999/xlink" x="0px" y="0px"
	 viewBox="0 0 512 512" style="enable-background:new 0 0 512 512;" xml:space="preserve">
<g>
	<g>
		<path d="M232.963,78.001c4.142,0,7.5-3.358,7.5-7.5V52.523c0-28.157-22.907-51.065-51.065-51.065H51.065
			C22.908,1.458,0,24.366,0,52.523v138.333c0,28.158,22.908,51.065,51.065,51.065h138.333c28.158,0,51.065-22.908,51.065-51.065
			v-90.024c0-4.142-3.358-7.5-7.5-7.5c-4.142,0-7.5,3.358-7.5,7.5v90.024c0,19.887-16.179,36.065-36.065,36.065H51.065
			C31.179,226.922,15,210.743,15,190.856V52.523c0-19.886,16.179-36.065,36.065-36.065h138.333
			c19.887,0,36.065,16.179,36.065,36.065v17.978C225.463,74.643,228.821,78.001,232.963,78.001z"/>
	</g>
</g>
<g>
	<g>
		<path d="M460.935,1.458H322.602c-28.157,0-51.064,22.908-51.064,51.065v138.333c0,28.158,22.907,51.065,51.064,51.065h56.566
			c4.143,0,7.5-3.358,7.5-7.5c0-4.142-3.357-7.5-7.5-7.5h-56.566c-19.886,0-36.064-16.179-36.064-36.065V52.523
			c0-19.886,16.179-36.065,36.064-36.065h138.333c19.887,0,36.065,16.179,36.065,36.065v138.333
			c0,19.887-16.179,36.065-36.065,36.065h-51.436c-4.143,0-7.5,3.358-7.5,7.5c0,4.142,3.357,7.5,7.5,7.5h51.436
			c28.157,0,51.065-22.908,51.065-51.065V52.523C512,24.366,489.092,1.458,460.935,1.458z"/>
	</g>
</g>
<g>
	<g>
		<path d="M189.398,270.078H51.065C22.908,270.078,0,292.986,0,321.144v138.333c0,28.157,22.908,51.065,51.065,51.065h66.102
			c4.142,0,7.5-3.358,7.5-7.5c0-4.142-3.358-7.5-7.5-7.5H51.065C31.179,495.542,15,479.363,15,459.477V321.144
			c0-19.887,16.179-36.065,36.065-36.065h138.333c19.887,0,36.065,16.179,36.065,36.065v138.333
			c0,19.886-16.179,36.065-36.065,36.065h-41.899c-4.142,0-7.5,3.358-7.5,7.5c0,4.142,3.358,7.5,7.5,7.5h41.899
			c28.158,0,51.065-22.908,51.065-51.065V321.144C240.463,292.986,217.556,270.078,189.398,270.078z"/>
	</g>
</g>
<g>
	<g>
		<path d="M460.935,270.078H322.602c-28.157,0-51.064,22.908-51.064,51.065v138.333c0,28.158,22.907,51.065,51.064,51.065h138.333
			c28.157,0,51.065-22.908,51.065-51.065V321.144C512,292.986,489.092,270.078,460.935,270.078z M497,459.476
			c0,19.887-16.179,36.065-36.065,36.065H322.602c-19.886,0-36.064-16.179-36.064-36.065V321.144
			c0-19.887,16.179-36.065,36.064-36.065h138.333c19.887,0,36.065,16.179,36.065,36.065V459.476z"/>
	</g>
</g>
<g>
	<g>
		<path d="M151.914,114.19h-24.183V90.007c0-4.142-3.358-7.5-7.5-7.5c-4.142,0-7.5,3.358-7.5,7.5v24.183H88.549
			c-4.142,0-7.5,3.358-7.5,7.5c0,4.142,3.358,7.5,7.5,7.5h24.183v24.183c-0.001,4.142,3.357,7.5,7.499,7.5
			c4.142,0,7.5-3.358,7.5-7.5V129.19h24.183c4.142,0,7.5-3.358,7.5-7.5C159.414,117.548,156.056,114.19,151.914,114.19z"/>
	</g>
</g>
<g>
	<g>
		<path d="M422.441,114.19h-63.365c-4.143,0-7.5,3.358-7.5,7.5c0,4.142,3.357,7.5,7.5,7.5h63.365c4.143,0,7.5-3.358,7.5-7.5
			C429.941,117.548,426.584,114.19,422.441,114.19z"/>
	</g>
</g>
<g>
	<g>
		<path d="M130.837,384.474l17.1-17.1c2.929-2.929,2.929-7.678,0-10.606c-2.929-2.929-7.678-2.929-10.606,0l-17.1,17.1l-17.1-17.1
			c-2.929-2.929-7.678-2.929-10.606,0c-2.929,2.929-2.929,7.678,0,10.606l17.1,17.1l-17.1,17.1c-2.929,2.928-2.929,7.677,0,10.606
			c1.464,1.464,3.384,2.197,5.303,2.197s3.839-0.732,5.303-2.197l17.1-17.1l17.1,17.1c1.464,1.464,3.384,2.197,5.303,2.197
			c1.919,0,3.839-0.732,5.303-2.197c2.929-2.929,2.929-7.678,0-10.606L130.837,384.474z"/>
	</g>
</g>
<g>
	<g>
		<path d="M422.441,363.18h-63.365c-4.143,0-7.5,3.358-7.5,7.5c0,4.142,3.357,7.5,7.5,7.5h63.365c4.143,0,7.5-3.358,7.5-7.5
			C429.941,366.538,426.584,363.18,422.441,363.18z"/>
	</g>
</g>
<g>
	<g>
		<path d="M422.441,390.767h-63.365c-4.143,0-7.5,3.358-7.5,7.5c0,4.142,3.357,7.5,7.5,7.5h63.365c4.143,0,7.5-3.358,7.5-7.5
			C429.941,394.125,426.584,390.767,422.441,390.767z"/>
	</g>
</g>
<g>
</g>
<g>
</g>
<g>
</g>
<g>
</g>
<g>
</g>
<g>
</g>
<g>
</g>
<g>
</g>
<g>
</g>
<g>
</g>
<g>
</g>
<g>
</g>
<g>
</g>
<g>
</g>
<g>
</g>
</svg>
